<svg width="250" height="144" viewBox="0 0 250 144" fill="none" xmlns="http://www.w3.org/2000/svg">
<path d="M154.434 56.6593C170.08 56.6593 182.763 43.9757 182.763 28.3297C182.763 12.6836 170.08 0 154.434 0C138.788 0 126.104 12.6836 126.104 28.3297C126.104 43.9757 138.788 56.6593 154.434 56.6593Z" fill="url(#paint0_linear_1_36087)"/>
<path d="M196.245 59.3392C205.831 59.3392 213.602 51.568 213.602 41.9818C213.602 32.3956 205.831 24.6244 196.245 24.6244C186.658 24.6244 178.887 32.3956 178.887 41.9818C178.887 51.568 186.658 59.3392 196.245 59.3392Z" fill="url(#paint1_linear_1_36087)"/>
<path d="M32.0091 71.9453C41.5953 71.9453 49.3665 64.1741 49.3665 54.5879C49.3665 45.0017 41.5953 37.2305 32.0091 37.2305C22.4229 37.2305 14.6517 45.0017 14.6517 54.5879C14.6517 64.1741 22.4229 71.9453 32.0091 71.9453Z" fill="url(#paint2_linear_1_36087)"/>
<path d="M55.9499 73.3057C61.9606 73.3057 66.8333 68.4331 66.8333 62.4223C66.8333 56.4116 61.9606 51.5389 55.9499 51.5389C49.9391 51.5389 45.0665 56.4116 45.0665 62.4223C45.0665 68.4331 49.9391 73.3057 55.9499 73.3057Z" fill="url(#paint3_linear_1_36087)"/>
<path d="M178.887 61.4857C183.682 61.4857 187.569 57.5986 187.569 52.8036C187.569 48.0086 183.682 44.1215 178.887 44.1215C174.092 44.1215 170.205 48.0086 170.205 52.8036C170.205 57.5986 174.092 61.4857 178.887 61.4857Z" fill="url(#paint4_linear_1_36087)"/>
<path d="M125.003 144C193.866 144 249.691 130.508 249.691 113.866C249.691 97.2227 193.866 83.7311 125.003 83.7311C56.1404 83.7311 0.315979 97.2227 0.315979 113.866C0.315979 130.508 56.1404 144 125.003 144Z" fill="url(#paint5_linear_1_36087)"/>
<path d="M46.0236 113.852C48.4513 113.852 50.4193 113.377 50.4193 112.792C50.4193 112.207 48.4513 111.733 46.0236 111.733C43.5959 111.733 41.6278 112.207 41.6278 112.792C41.6278 113.377 43.5959 113.852 46.0236 113.852Z" fill="url(#paint6_linear_1_36087)"/>
<path d="M45.9073 109.415C46.905 108.499 47.7029 107.387 48.2511 106.148C48.7992 104.909 49.0859 103.571 49.093 102.216C49.093 97.6361 45.9962 87.0193 45.8663 87.0193C45.7364 87.0193 42.954 97.9574 42.954 102.237C43.0378 104.908 44.0871 107.458 45.9073 109.415Z" fill="#D8DDE1"/>
<path d="M46.1808 108.506H45.9484L45.6339 111.972L46.4338 112.204L46.1808 108.506Z" fill="#C8CFD6"/>
<path d="M45.8663 91.7023C45.8663 91.7023 43.9863 97.8549 43.9863 100.036C43.9966 100.697 44.1385 101.349 44.4038 101.955C44.6691 102.561 45.0524 103.107 45.5313 103.563C46.2072 103.151 46.7561 102.56 47.118 101.855C47.4798 101.151 47.6404 100.361 47.5822 99.5709C47.1561 96.9172 46.5786 94.29 45.8526 91.7023" fill="#C8CFD6"/>
<path fill-rule="evenodd" clip-rule="evenodd" d="M89.2523 117.926L87.885 132.966L130.954 141.17L165.819 130.915L164.452 116.559L129.586 118.61L89.2523 117.926Z" fill="url(#paint7_linear_1_36087)"/>
<path fill-rule="evenodd" clip-rule="evenodd" d="M103.485 72.2666C103.486 73.0136 103.265 73.744 102.85 74.3654C102.436 74.9868 101.846 75.4713 101.156 75.7575C100.466 76.0437 99.7068 76.1189 98.974 75.9735C98.2413 75.8281 97.5682 75.4687 97.0398 74.9407C96.5114 74.4127 96.1514 73.7397 96.0055 73.0071C95.8596 72.2745 95.9342 71.5151 96.2199 70.8249C96.5057 70.1347 96.9897 69.5447 97.6108 69.1297C98.2319 68.7146 98.9621 68.4929 99.7091 68.4929C100.71 68.494 101.669 68.8919 102.377 69.5993C103.085 70.3067 103.484 71.2658 103.485 72.2666Z" fill="url(#paint8_linear_1_36087)"/>
<path fill-rule="evenodd" clip-rule="evenodd" d="M123.005 76.2249V108.896L161.675 107.754L163.941 79.3217L123.005 76.2249Z" fill="#8492D7"/>
<path fill-rule="evenodd" clip-rule="evenodd" d="M123.85 76.2249L89.7369 81.8443L91.4378 107.18L123.85 108.896V76.2249Z" fill="#98A6E7"/>
<path d="M91.3032 47.5123C91.3032 47.5123 120.386 51.9833 119.332 87.1629" stroke="#BBBBBB" stroke-width="0.683631"/>
<path d="M120.016 91.2441C115.776 84.4069 113.911 76.3614 114.711 68.3562C115.294 62.9008 116.805 57.6163 117.772 52.2293C118.543 47.9361 119.491 44.4496 117.853 39.131" stroke="#BBBBBB" stroke-width="0.683631"/>
<path d="M133.605 41.3528C133.605 41.3528 141.877 67.4197 115.222 95.4075" stroke="#BBBBBB" stroke-width="0.683631"/>
<path d="M146.677 39.9855C146.373 42.8705 146.267 45.8921 145.391 48.6745C144.479 51.2055 143.242 53.607 141.71 55.8184C135.097 66.1549 117.279 71.6104 121.885 87.5868" stroke="#BBBBBB" stroke-width="0.683631"/>
<path fill-rule="evenodd" clip-rule="evenodd" d="M122.667 30.4215C122.313 34.4754 119.876 40.2795 119.75 40.5667C119.643 40.8288 119.454 41.0493 119.212 41.1955C118.963 41.3423 118.67 41.3979 118.385 41.3528C118.071 41.3254 111.744 40.5256 107.788 38.8439C106.444 38.1739 104.526 37.4835 103.386 35.6035C101.467 32.4383 101.922 29.1704 104.886 27.4613C106.532 26.5111 109.255 27.0103 111.056 27.7554C111.261 25.8413 112.117 23.2912 113.763 22.341C116.739 20.625 120.015 21.7325 121.934 24.8977C123.074 26.7777 122.73 28.9517 122.665 30.4215H122.667Z" fill="url(#paint9_linear_1_36087)"/>
<path fill-rule="evenodd" clip-rule="evenodd" d="M136.696 40.2726L135.704 39.1995C135.538 38.9867 135.417 38.7425 135.347 38.4818C135.277 38.221 135.261 37.949 135.299 37.6818L135.615 36.2119C135.696 35.9944 135.707 35.757 135.646 35.5329C135.586 35.3088 135.457 35.1093 135.277 34.9623C135.097 34.8153 134.876 34.7282 134.644 34.7133C134.413 34.6983 134.182 34.7562 133.985 34.8789L132.682 35.5009C132.438 35.5888 132.177 35.6246 131.918 35.6057C131.659 35.5869 131.407 35.5139 131.178 35.3916L129.814 34.6806C129.616 34.5739 129.392 34.525 129.167 34.5395C128.942 34.554 128.726 34.6314 128.543 34.7627C128.365 34.9111 128.229 35.1051 128.152 35.3242C128.075 35.5432 128.058 35.7791 128.104 36.0068L128.283 37.4835C128.296 37.7554 128.255 38.0272 128.162 38.283C128.069 38.5388 127.926 38.7736 127.742 38.9738L126.648 39.9856C126.483 40.1176 126.352 40.2882 126.267 40.4824C126.183 40.6767 126.147 40.8887 126.163 41.1C126.206 41.3523 126.332 41.5832 126.52 41.7564C126.709 41.9296 126.95 42.0354 127.205 42.057L128.635 42.3098C128.889 42.3828 129.126 42.5057 129.332 42.6712C129.538 42.8367 129.709 43.0415 129.835 43.2739L130.415 44.6274C130.526 44.9266 130.738 45.178 131.014 45.3384C131.155 45.4014 131.307 45.4344 131.461 45.4354C131.615 45.4364 131.767 45.4053 131.909 45.3443C132.05 45.2832 132.177 45.1934 132.282 45.0806C132.387 44.9678 132.467 44.8345 132.518 44.689L133.219 43.3763C133.362 43.148 133.549 42.951 133.77 42.797C133.991 42.6431 134.24 42.5354 134.504 42.4807L135.952 42.3098C136.19 42.3112 136.422 42.2394 136.617 42.1039C136.812 41.9684 136.96 41.7761 137.041 41.5531C137.123 41.3301 137.133 41.0875 137.072 40.8583C137.01 40.6291 136.879 40.4245 136.696 40.2726Z" fill="url(#paint10_linear_1_36087)"/>
<path fill-rule="evenodd" clip-rule="evenodd" d="M90.394 52.4209L90.7358 51.0059C90.8192 50.7487 90.954 50.5111 91.1322 50.3077C91.3104 50.1044 91.5281 49.9395 91.7721 49.823L93.1702 49.2626C93.3956 49.2091 93.5987 49.0864 93.7509 48.9117C93.9031 48.7371 93.9969 48.5192 94.019 48.2885C94.0412 48.0579 93.9906 47.8261 93.8744 47.6256C93.7583 47.4251 93.5823 47.2661 93.3712 47.1706L92.1276 46.4323C91.9189 46.2774 91.7448 46.0808 91.6165 45.8548C91.4881 45.6287 91.4084 45.3783 91.3825 45.1197L91.2157 43.5952C91.1945 43.3704 91.1102 43.1562 90.9726 42.9772C90.8349 42.7982 90.6495 42.6617 90.4377 42.5835C90.215 42.5167 89.9784 42.512 89.7532 42.5698C89.528 42.6276 89.3229 42.7458 89.16 42.9116L88.0306 43.8823C87.8129 44.0448 87.5647 44.1619 87.3008 44.2265C87.0369 44.2911 86.7627 44.3019 86.4945 44.2584L85.0466 43.9165C84.8446 43.8517 84.6297 43.8378 84.421 43.876C84.2123 43.9141 84.0162 44.0032 83.8502 44.1353C83.6653 44.3114 83.5441 44.5439 83.5057 44.7963C83.4672 45.0487 83.5136 45.3068 83.6376 45.53L84.2194 46.863C84.3005 47.1141 84.3308 47.3789 84.3085 47.6418C84.2862 47.9047 84.2118 48.1605 84.0895 48.3944L83.2828 49.6318C83.0991 49.8902 83.01 50.2039 83.0305 50.5203C83.0558 50.6716 83.1123 50.816 83.1963 50.9443C83.2804 51.0725 83.3901 51.182 83.5187 51.2656C83.6473 51.3491 83.7918 51.4051 83.9432 51.4298C84.0945 51.4545 84.2493 51.4474 84.3978 51.4091L85.8847 51.2587C86.1536 51.2516 86.4211 51.2987 86.6713 51.3974C86.9215 51.4961 87.1493 51.6443 87.3409 51.833L88.2904 52.9404C88.4292 53.1287 88.6183 53.2742 88.8359 53.36C89.0536 53.4459 89.291 53.4686 89.521 53.4258C89.7457 53.3563 89.9465 53.2255 90.1007 53.0479C90.255 52.8703 90.3566 52.6531 90.394 52.4209Z" fill="url(#paint11_linear_1_36087)"/>
<path fill-rule="evenodd" clip-rule="evenodd" d="M159.285 18.2187L155.655 18.8136C154.98 18.8643 154.302 18.7777 153.661 18.5592C153.021 18.3407 152.431 17.9946 151.928 17.5419L149.317 14.8142C147.385 12.7975 144.627 13.5837 144.249 16.3866L143.706 20.0168C143.542 20.6552 143.249 21.253 142.844 21.7729C142.439 22.2928 141.931 22.7236 141.352 23.0383L137.948 24.9252C137.444 25.1957 137.026 25.6015 136.741 26.0967C136.455 26.5918 136.314 27.1568 136.332 27.7281C136.384 28.3103 136.595 28.8671 136.941 29.3382C137.287 29.8094 137.755 30.1768 138.295 30.4011L141.622 32.0896C142.206 32.4451 142.712 32.9137 143.111 33.4679C143.51 34.0221 143.794 34.6506 143.947 35.3163L144.513 39.0423C144.552 39.5739 144.721 40.0877 145.006 40.5384C145.291 40.989 145.682 41.3626 146.145 41.6262C147.232 42.18 148.528 41.8725 149.597 40.7582L152.15 38.0988C152.655 37.6646 153.241 37.3357 153.874 37.1314C154.508 36.9271 155.176 36.8516 155.839 36.9092L159.479 37.586C160.258 37.7636 161.074 37.6671 161.79 37.3126C162.911 36.6905 163.585 35.1934 162.573 33.2314L160.822 29.902C160.552 29.2772 160.408 28.6046 160.401 27.9237C160.394 27.2428 160.523 26.5674 160.78 25.9369L162.465 22.6351C162.775 22.1305 162.937 21.5485 162.932 20.9561C162.927 20.3636 162.755 19.7845 162.436 19.2852C162.067 18.8264 161.574 18.4824 161.016 18.2935C160.458 18.1046 159.857 18.0787 159.285 18.2187Z" fill="url(#paint12_linear_1_36087)"/>
<path fill-rule="evenodd" clip-rule="evenodd" d="M89.2441 118.487V82.3638L122.895 84.6677L130.278 85.1736V129.555L89.2441 118.487Z" fill="#AFBBF4"/>
<path fill-rule="evenodd" clip-rule="evenodd" d="M164.452 79.6498L130.27 85.0641V129.541L164.452 116.183V79.6498Z" fill="#98A6E7"/>
<path fill-rule="evenodd" clip-rule="evenodd" d="M164.452 79.643L129.984 84.3328L134.372 103.57L170.604 94.6829L164.452 79.643Z" fill="#C2CBF6"/>
<path fill-rule="evenodd" clip-rule="evenodd" d="M89.2522 81.7144L83.7832 96.0501L125.485 104.937L130.688 84.5037L89.2522 81.7144Z" fill="#C2CBF6"/>
<path fill-rule="evenodd" clip-rule="evenodd" d="M108.394 109.723V123.395L100.874 121.344V108.355L108.394 109.723Z" fill="#BCC6F5"/>
<path fill-rule="evenodd" clip-rule="evenodd" d="M122.75 109.723V127.497L115.23 125.446V108.355L122.75 109.723Z" fill="#BCC6F5"/>
<path fill-rule="evenodd" clip-rule="evenodd" d="M144.626 115.875V124.079L152.146 121.344V113.141L144.626 115.875Z" fill="#BCC6F5"/>
<path fill-rule="evenodd" clip-rule="evenodd" d="M146.659 75.4659C146.659 76.5465 146.337 77.6026 145.736 78.5005C145.135 79.3985 144.282 80.098 143.283 80.5109C142.284 80.9237 141.186 81.0314 140.126 80.82C139.067 80.6086 138.093 80.0878 137.33 79.3234C136.566 78.559 136.046 77.5853 135.836 76.5254C135.625 75.4656 135.734 74.3672 136.147 73.369C136.561 72.3708 137.261 71.5177 138.16 70.9175C139.058 70.3173 140.115 69.9969 141.195 69.9969C141.913 69.9969 142.624 70.1384 143.287 70.4133C143.951 70.6882 144.553 71.0912 145.061 71.5991C145.568 72.1071 145.971 72.71 146.245 73.3735C146.519 74.037 146.66 74.748 146.659 75.4659Z" fill="url(#paint13_linear_1_36087)"/>
<defs>
<linearGradient id="paint0_linear_1_36087" x1="154.434" y1="56.6593" x2="154.434" y2="0" gradientUnits="userSpaceOnUse">
<stop stop-color="white" stop-opacity="0"/>
<stop offset="1" stop-color="#E3E3E3"/>
</linearGradient>
<linearGradient id="paint1_linear_1_36087" x1="196.245" y1="59.3392" x2="196.245" y2="24.6244" gradientUnits="userSpaceOnUse">
<stop stop-color="white" stop-opacity="0"/>
<stop offset="1" stop-color="#E3E3E3"/>
</linearGradient>
<linearGradient id="paint2_linear_1_36087" x1="32.0091" y1="71.9453" x2="32.0091" y2="37.2237" gradientUnits="userSpaceOnUse">
<stop stop-color="white" stop-opacity="0"/>
<stop offset="1" stop-color="#E3E3E3"/>
</linearGradient>
<linearGradient id="paint3_linear_1_36087" x1="55.9499" y1="73.3057" x2="55.9499" y2="51.5389" gradientUnits="userSpaceOnUse">
<stop stop-color="white" stop-opacity="0"/>
<stop offset="1" stop-color="#E3E3E3"/>
</linearGradient>
<linearGradient id="paint4_linear_1_36087" x1="178.887" y1="61.4789" x2="178.887" y2="44.1215" gradientUnits="userSpaceOnUse">
<stop stop-color="white" stop-opacity="0"/>
<stop offset="0.06" stop-color="#FAFAFA" stop-opacity="0.18"/>
<stop offset="0.14" stop-color="#F5F5F5" stop-opacity="0.37"/>
<stop offset="0.22" stop-color="#F0F0F0" stop-opacity="0.54"/>
<stop offset="0.31" stop-color="#ECECEC" stop-opacity="0.68"/>
<stop offset="0.4" stop-color="#E9E9E9" stop-opacity="0.8"/>
<stop offset="0.51" stop-color="#E6E6E6" stop-opacity="0.89"/>
<stop offset="0.62" stop-color="#E4E4E4" stop-opacity="0.95"/>
<stop offset="0.76" stop-color="#E3E3E3" stop-opacity="0.99"/>
<stop offset="1" stop-color="#E3E3E3"/>
</linearGradient>
<linearGradient id="paint5_linear_1_36087" x1="125.003" y1="144" x2="125.003" y2="83.7311" gradientUnits="userSpaceOnUse">
<stop stop-color="white" stop-opacity="0"/>
<stop offset="0.13" stop-color="#FEFEFE" stop-opacity="0.02"/>
<stop offset="0.26" stop-color="#FDFDFD" stop-opacity="0.07"/>
<stop offset="0.4" stop-color="#FAFAFA" stop-opacity="0.16"/>
<stop offset="0.53" stop-color="#F7F7F7" stop-opacity="0.29"/>
<stop offset="0.67" stop-color="#F2F2F2" stop-opacity="0.46"/>
<stop offset="0.81" stop-color="#EDEDED" stop-opacity="0.66"/>
<stop offset="0.94" stop-color="#E6E6E6" stop-opacity="0.9"/>
<stop offset="1" stop-color="#E3E3E3"/>
</linearGradient>
<linearGradient id="paint6_linear_1_36087" x1="46.0236" y1="113.859" x2="46.0236" y2="111.733" gradientUnits="userSpaceOnUse">
<stop stop-color="white" stop-opacity="0"/>
<stop offset="1" stop-color="#D6D6D6"/>
</linearGradient>
<linearGradient id="paint7_linear_1_36087" x1="126.852" y1="141.17" x2="126.852" y2="116.559" gradientUnits="userSpaceOnUse">
<stop stop-color="white" stop-opacity="0"/>
<stop offset="1" stop-color="#E4E7F9"/>
</linearGradient>
<linearGradient id="paint8_linear_1_36087" x1="99.7098" y1="76.0539" x2="99.7098" y2="68.4929" gradientUnits="userSpaceOnUse">
<stop stop-color="#AFBBF4"/>
<stop offset="1" stop-color="white"/>
</linearGradient>
<linearGradient id="paint9_linear_1_36087" x1="112.496" y1="41.3596" x2="112.496" y2="21.5343" gradientUnits="userSpaceOnUse">
<stop stop-color="#909DDD"/>
<stop offset="1" stop-color="#DFE5FF"/>
</linearGradient>
<linearGradient id="paint10_linear_1_36087" x1="131.637" y1="45.441" x2="131.637" y2="34.5439" gradientUnits="userSpaceOnUse">
<stop stop-color="#94A1DE"/>
<stop offset="1" stop-color="#DCE2FE"/>
</linearGradient>
<linearGradient id="paint11_linear_1_36087" x1="88.5365" y1="53.4531" x2="88.5365" y2="42.5151" gradientUnits="userSpaceOnUse">
<stop stop-color="#94A1DE"/>
<stop offset="1" stop-color="#DCE2FE"/>
</linearGradient>
<linearGradient id="paint12_linear_1_36087" x1="149.7" y1="41.8929" x2="149.7" y2="13.6726" gradientUnits="userSpaceOnUse">
<stop stop-color="#8E9EE7"/>
<stop offset="1" stop-color="#E5E9FF"/>
</linearGradient>
<linearGradient id="paint13_linear_1_36087" x1="141.198" y1="80.9283" x2="141.198" y2="70.0106" gradientUnits="userSpaceOnUse">
<stop stop-color="#AFBBF4"/>
<stop offset="1" stop-color="white"/>
</linearGradient>
</defs>
</svg>
