<svg width="230" height="145" viewBox="0 0 230 145" fill="none" xmlns="http://www.w3.org/2000/svg">
<g clip-path="url(#clip0_1_36403)">
<path d="M46.3516 5.84973C45.8974 5.84819 45.4477 5.94037 45.0307 6.12052C44.8413 5.10973 44.2949 4.20071 43.491 3.55932C42.6871 2.91793 41.6795 2.58692 40.6519 2.62669C40.4868 2.62669 40.3282 2.62669 40.1697 2.62669C40.1301 2.58706 40.0971 2.53423 40.0508 2.4946L39.6942 2.13795C38.6133 1.0751 37.1582 0.479492 35.6423 0.479492C34.1264 0.479492 32.6712 1.0751 31.5904 2.13795C30.8889 2.84573 30.3896 3.7282 30.144 4.69393C29.6477 4.41849 29.0865 4.28162 28.5192 4.29765C27.7684 4.30674 27.0438 4.57451 26.4674 5.05578C25.8911 5.53704 25.4984 6.20236 25.3556 6.93949H24.2328C20.3097 6.93949 20.0984 12.6789 23.5724 13.3261C24.0419 13.5925 24.5706 13.7375 25.1103 13.7479C25.6501 13.7583 26.1839 13.6337 26.6633 13.3856H45.962C46.7119 13.4106 47.4438 13.1528 48.0127 12.6635C48.5815 12.1742 48.9457 11.489 49.0331 10.7437C50.037 8.83501 49.1388 5.86955 46.3186 5.86955L46.3516 5.84973Z" fill="url(#paint0_linear_1_36403)"/>
<path d="M121.644 63.4683C102.159 58.2121 82.2058 54.8784 62.0705 53.5152C44.04 52.3527 17.0206 53.0462 5.08606 69.168C-0.858075 77.2257 -1.73649 90.5934 4.14821 98.8887C11.5255 109.291 27.8587 110.374 39.3045 110.506C51.8044 110.415 64.2961 111.174 76.6931 112.778C86.2301 113.98 95.8464 115.625 104.974 118.63C126.644 125.75 142.534 127.018 164.97 122.018C182.895 118.022 235.534 104.655 229.378 77.9588C225.6 61.5596 205.938 57.3524 191.639 56.2296C168.279 54.4068 144.364 58.6205 121.644 63.4683Z" fill="url(#paint1_linear_1_36403)"/>
<path d="M200.774 63.957C199.393 64.6703 196.375 66.5989 196.375 66.5989L195.014 69.7493C195.014 69.7493 199.413 67.9528 200.959 67.048C199.723 67.048 197.531 67.1471 197.531 67.1471C198.753 66.2378 199.844 65.1643 200.774 63.957Z" fill="#D8DDE1"/>
<path d="M190.015 68.0055C188.712 67.5069 187.458 66.8878 186.27 66.1562C188.02 67.3054 189.771 68.3555 190.708 70.2444L191.408 68.7386C190.365 66.2949 187.109 61.6453 187.109 61.6453C187.109 61.6453 189.665 65.9118 190.015 68.0055Z" fill="#D8DDE1"/>
<path d="M192.657 72.5561C196.494 72.5561 199.605 71.805 199.605 70.8785C199.605 69.952 196.494 69.2009 192.657 69.2009C188.819 69.2009 185.709 69.952 185.709 70.8785C185.709 71.805 188.819 72.5561 192.657 72.5561Z" fill="url(#paint2_linear_1_36403)"/>
<path d="M191.191 39.3283L191.534 39.1764C196.098 37.195 199.519 37.3007 201.586 37.7432C202.663 37.9546 203.694 38.3548 204.631 38.9254C204.675 38.2356 204.554 37.5452 204.278 36.9114C204.003 36.2775 203.58 35.7182 203.046 35.2797C199.777 32.77 192.531 35.075 192.479 35.0948L192.214 35.1872L192.148 34.9098C191.488 32.0567 195.279 29.0846 197.234 27.7637C192.432 28.6883 189.678 30.465 188.186 31.8519C187.212 32.6789 186.459 33.734 185.993 34.9231L185.914 35.1674L185.669 35.1014C182.367 34.2098 179.725 34.3881 177.869 35.6297C176.718 36.4234 175.876 37.5898 175.485 38.932C177.922 37.2611 179.903 37.0101 181.178 37.1092C182.029 37.1599 182.853 37.4233 183.576 37.8753L183.912 38.1263L183.536 38.3178C180.062 40.0548 177.757 42.5183 176.865 45.4508C176.503 46.6185 176.382 47.8475 176.509 49.0635C181.918 46.1046 186.046 40.1671 186.085 40.1077L186.607 39.3613L186.561 40.2662C186.376 42.9399 187.072 45.6006 188.542 47.8416C189.025 48.5573 189.595 49.2096 190.24 49.7834C189.718 46.6462 190.682 42.2343 190.728 42.0362L190.867 41.3757L191.191 39.3283Z" fill="#D8DDE1"/>
<path d="M190.847 41.4088L191.184 41.9768C193.338 45.5072 194.714 49.4566 195.219 53.5613C195.298 54.316 195.338 55.0744 195.338 55.8333C195.336 58.026 194.984 60.2044 194.295 62.2859C193.442 64.9302 192.025 67.3574 190.14 69.3991H195.497C196.93 65.4363 198.138 60.0602 197.967 56.1899C197.828 53.3528 197.258 50.5533 196.276 47.8879C195.199 44.8657 193.576 42.0673 191.488 39.6322L191.455 39.5926L191.197 39.3284L190.847 41.4088Z" fill="#C7CED5"/>
<path d="M188.8 37.7698C189.712 37.7698 190.451 37.2878 190.451 36.6932C190.451 36.0987 189.712 35.6167 188.8 35.6167C187.888 35.6167 187.149 36.0987 187.149 36.6932C187.149 37.2878 187.888 37.7698 188.8 37.7698Z" fill="#F2F3F4"/>
</g>
<g clip-path="url(#clip1_1_36403)">
<path fill-rule="evenodd" clip-rule="evenodd" d="M92.2538 122.705C53.0437 122.705 21.2544 127.586 21.2544 133.602C21.2544 139.619 53.0417 144.506 92.2538 144.506C131.466 144.506 163.253 139.626 163.253 133.602C163.253 127.579 131.465 122.705 92.2538 122.705Z" fill="#F9F9F9"/>
<path fill-rule="evenodd" clip-rule="evenodd" d="M93.5745 129.309C64.5744 129.309 41.064 130.934 41.064 132.942C41.064 134.95 64.5764 136.574 93.5745 136.574C122.573 136.574 146.081 134.95 146.081 132.942C146.081 130.934 122.575 129.309 93.5745 129.309Z" fill="#F1F1F1"/>
<path fill-rule="evenodd" clip-rule="evenodd" d="M44.2025 132.744H143.514C146.227 132.744 147.147 129.475 147.147 129.475L148.065 124.693H35.7842L38.3376 129.475C38.3376 129.475 40.4121 133.252 44.2025 132.744Z" fill="url(#paint3_linear_1_36403)"/>
<path fill-rule="evenodd" clip-rule="evenodd" d="M48.127 110.156H43.4972C42.2087 110.156 41.1625 111.603 41.1625 113.386V117.005H35.5255C31.8216 116.893 33.1908 120.234 33.1908 120.234L35.6061 124.686H81.8666L82.6717 120.234C82.6717 118.451 81.6249 117.005 80.3363 117.005H78.8067V113.386C78.8067 111.603 77.7592 110.156 76.472 110.156H48.127Z" fill="url(#paint4_linear_1_36403)"/>
<path fill-rule="evenodd" clip-rule="evenodd" d="M34.4633 122.044L35.8972 124.686H82.1954L82.6736 122.044H34.4633Z" fill="#C7CED5"/>
<path fill-rule="evenodd" clip-rule="evenodd" d="M49.3896 115.176C49.4189 115.386 49.3661 115.599 49.2422 115.771C49.1184 115.943 48.933 116.061 48.7245 116.1H47.6744C47.4663 116.06 47.2814 115.942 47.1577 115.77C47.034 115.598 46.9809 115.386 47.0093 115.176V113.722C46.98 113.512 47.0328 113.299 47.1566 113.127C47.2805 112.955 47.4659 112.837 47.6744 112.798H48.7245C48.9326 112.838 49.1175 112.956 49.2412 113.128C49.3649 113.3 49.418 113.512 49.3896 113.722V115.176ZM55.0603 115.176C55.0896 115.386 55.0368 115.599 54.9129 115.771C54.7891 115.943 54.6037 116.061 54.3952 116.1H53.3451C53.137 116.06 52.9521 115.942 52.8284 115.77C52.7047 115.598 52.6516 115.386 52.68 115.176V113.722C52.6507 113.512 52.7035 113.299 52.8273 113.127C52.9512 112.955 53.1366 112.837 53.3451 112.798H54.3952C54.6032 112.838 54.7881 112.956 54.9117 113.128C55.0354 113.3 55.0886 113.513 55.0603 113.722V115.176ZM60.7654 115.176C60.7948 115.386 60.7422 115.599 60.6185 115.771C60.4947 115.943 60.3094 116.061 60.1009 116.1H59.0508C58.8427 116.06 58.6578 115.942 58.5341 115.77C58.4104 115.598 58.3573 115.386 58.3857 115.176V113.722C58.3565 113.512 58.4092 113.299 58.5331 113.127C58.6569 112.955 58.8423 112.837 59.0508 112.798H60.1009C60.3089 112.838 60.4937 112.956 60.6172 113.128C60.7408 113.3 60.7938 113.513 60.7654 113.722V115.176ZM66.4361 115.176C66.4653 115.386 66.4127 115.599 66.2889 115.771C66.1652 115.943 65.98 116.061 65.7716 116.1H64.7215C64.5133 116.06 64.3282 115.943 64.2044 115.771C64.0805 115.599 64.0273 115.386 64.0558 115.176V113.722C64.0265 113.512 64.0794 113.299 64.2034 113.127C64.3273 112.955 64.5129 112.837 64.7215 112.798H65.7716C65.9795 112.838 66.1642 112.956 66.2877 113.128C66.4113 113.3 66.4644 113.513 66.4361 113.722V115.176ZM72.1068 115.176C72.136 115.386 72.0833 115.599 71.9594 115.771C71.8356 115.943 71.6502 116.061 71.4417 116.1H70.3922C70.1841 116.06 69.9992 115.942 69.8755 115.77C69.7518 115.598 69.6987 115.386 69.7271 115.176V113.722C69.6979 113.512 69.7506 113.299 69.8745 113.127C69.9983 112.955 70.1837 112.837 70.3922 112.798H71.4423C71.6504 112.838 71.8354 112.956 71.9591 113.128C72.0828 113.3 72.1359 113.512 72.1074 113.722V115.176H72.1068Z" fill="white"/>
<path d="M70.1284 99.5886H64.8448V110.156H70.1284V99.5886Z" fill="url(#paint5_linear_1_36403)"/>
<path fill-rule="evenodd" clip-rule="evenodd" d="M67.6803 95.5799C67.0442 96.555 66.8205 97.7425 67.0581 98.8822C67.2604 98.3467 67.5645 97.8556 67.9537 97.4359C69.4609 95.8375 71.8141 95.8308 73.532 95.8308C73.6885 95.8308 73.8391 95.8307 73.9831 95.824C74.6139 95.8461 75.2409 95.7181 75.8126 95.4506C76.3843 95.1831 76.8843 94.7839 77.2715 94.2854C77.7565 93.5295 77.9595 92.6266 77.8448 91.7358C76.5813 94.3975 74.8635 94.424 72.8213 94.14C72.5651 94.107 72.3061 94.0674 72.0459 94.041C70.155 93.8627 68.523 94.4373 67.6803 95.5799Z" fill="url(#paint6_linear_1_36403)"/>
<path fill-rule="evenodd" clip-rule="evenodd" d="M126.987 124.686H103.078C99.5875 124.668 96.2454 123.269 93.782 120.796C91.3187 118.322 89.9341 114.974 89.9306 111.483V67.2196C89.9341 63.7281 91.319 60.3798 93.783 57.9061C96.2469 55.4324 99.5896 54.0341 103.081 54.0168H126.99C130.481 54.035 133.822 55.4334 136.286 57.907C138.749 60.3807 140.133 63.7287 140.137 67.2196V111.483C140.133 114.975 138.749 118.323 136.285 120.796C133.821 123.27 130.478 124.669 126.987 124.686Z" fill="url(#paint7_radial_1_36403)"/>
<path fill-rule="evenodd" clip-rule="evenodd" d="M125.133 50.7014H105.306L101.831 39.4736H128.249L125.133 50.7014Z" fill="url(#paint8_linear_1_36403)"/>
<path fill-rule="evenodd" clip-rule="evenodd" d="M140.137 75.8122V111.483C140.133 114.975 138.749 118.323 136.285 120.797C133.821 123.27 130.478 124.669 126.987 124.686H103.078C99.5875 124.668 96.2454 123.27 93.782 120.796C91.3187 118.322 89.9341 114.974 89.9306 111.483L89.9419 71.189L140.137 75.8122Z" fill="url(#paint9_linear_1_36403)"/>
<path fill-rule="evenodd" clip-rule="evenodd" d="M89.9332 71.0435C89.9332 71.0435 112.83 73.9298 125.607 68.5471C136.949 63.772 140.137 66.6383 140.137 66.6383V77.7935C140.137 77.7935 132.428 84.2396 119.002 82.4167C105.432 80.5741 112.337 76.0234 89.9332 71.0435Z" fill="url(#paint10_linear_1_36403)"/>
<path opacity="0.7" fill-rule="evenodd" clip-rule="evenodd" d="M101.17 48.7334H128.909L127.588 54.0171H124.098L122.304 57.9798H107.774L106.393 54.0171H102.491L101.17 48.7334Z" fill="url(#paint11_linear_1_36403)"/>
<path opacity="0.3" d="M125.607 46.752H104.472C104.107 46.752 103.812 47.0477 103.812 47.4124C103.812 47.7772 104.107 48.0729 104.472 48.0729H125.607C125.972 48.0729 126.267 47.7772 126.267 47.4124C126.267 47.0477 125.972 46.752 125.607 46.752Z" fill="#9AA6E5"/>
<path opacity="0.3" d="M125.049 48.7334H105.03C104.665 48.7334 104.369 49.0291 104.369 49.3939C104.369 49.7586 104.665 50.0543 105.03 50.0543H125.049C125.414 50.0543 125.71 49.7586 125.71 49.3939C125.71 49.0291 125.414 48.7334 125.049 48.7334Z" fill="#9AA6E5"/>
<path opacity="0.3" d="M124.492 50.7146H105.587C105.222 50.7146 104.926 51.0103 104.926 51.3751C104.926 51.7398 105.222 52.0355 105.587 52.0355H124.492C124.857 52.0355 125.152 51.7398 125.152 51.3751C125.152 51.0103 124.857 50.7146 124.492 50.7146Z" fill="#9AA6E5"/>
<path opacity="0.3" d="M123.915 52.696H106.164C105.8 52.696 105.504 52.9917 105.504 53.3565C105.504 53.7213 105.8 54.017 106.164 54.017H123.915C124.28 54.017 124.575 53.7213 124.575 53.3565C124.575 52.9917 124.28 52.696 123.915 52.696Z" fill="#9AA6E5"/>
<path opacity="0.3" d="M123.357 54.6775H106.721C106.357 54.6775 106.061 54.9732 106.061 55.3379C106.061 55.7027 106.357 55.9984 106.721 55.9984H123.357C123.722 55.9984 124.018 55.7027 124.018 55.3379C124.018 54.9732 123.722 54.6775 123.357 54.6775Z" fill="#9AA6E5"/>
<path fill-rule="evenodd" clip-rule="evenodd" d="M108.435 116.1C107.827 116.847 107.496 117.78 107.496 118.742C107.496 119.704 107.827 120.637 108.435 121.384C108.435 121.384 109.422 123.425 107.774 124.686H111.077C111.077 124.686 112.256 121.575 109.756 120.063C109.756 120.063 108.2 119.402 108.435 116.1Z" fill="#99A6E7"/>
<path fill-rule="evenodd" clip-rule="evenodd" d="M111.737 124.686C111.737 124.686 111.536 121.925 113.058 120.723C113.058 120.723 111.997 124.23 113.719 124.686H111.737Z" fill="#99A6E7"/>
<path fill-rule="evenodd" clip-rule="evenodd" d="M102.491 124.686C102.491 124.686 102.289 121.925 103.812 120.723C103.812 120.723 102.751 124.23 104.472 124.686H102.491Z" fill="#99A6E7"/>
<path fill-rule="evenodd" clip-rule="evenodd" d="M120.323 124.686C120.323 124.686 120.524 121.925 119.002 120.723C119.002 120.723 120.063 124.23 118.342 124.686H120.323Z" fill="#99A6E7"/>
<path fill-rule="evenodd" clip-rule="evenodd" d="M101.11 91.6631C108.907 91.6631 116.265 97.6138 117.495 104.681C118.675 111.464 113.73 116.761 106.496 116.761C99.2625 116.761 92.0423 111.464 90.3152 104.681C88.5089 97.6138 93.3104 91.6631 101.11 91.6631Z" fill="url(#paint12_linear_1_36403)"/>
<path fill-rule="evenodd" clip-rule="evenodd" d="M101.076 92.9644C107.319 92.9644 113.852 97.6932 115.668 103.532C117.484 109.37 113.894 114.099 107.65 114.099C101.406 114.099 94.8728 109.37 93.0539 103.532C91.235 97.6932 94.8292 92.9644 101.076 92.9644Z" fill="url(#paint13_linear_1_36403)"/>
<path fill-rule="evenodd" clip-rule="evenodd" d="M129.999 121.285C130.065 121.323 130.123 121.374 130.169 121.435C130.215 121.496 130.248 121.566 130.265 121.64C130.283 121.714 130.285 121.791 130.272 121.867C130.259 121.942 130.23 122.014 130.188 122.077L128.874 124.013C128.83 124.075 128.775 124.128 128.71 124.169C128.645 124.209 128.572 124.235 128.497 124.246C128.421 124.257 128.344 124.253 128.271 124.233C128.197 124.213 128.128 124.179 128.068 124.132L115.921 114.839L117.229 112.91L129.999 121.285Z" fill="url(#paint14_linear_1_36403)"/>
<path fill-rule="evenodd" clip-rule="evenodd" d="M130.261 121.463C130.327 121.501 130.386 121.552 130.432 121.613C130.478 121.674 130.51 121.744 130.528 121.818C130.546 121.892 130.548 121.97 130.535 122.045C130.522 122.12 130.493 122.192 130.451 122.255L129.138 124.191C129.094 124.254 129.038 124.307 128.973 124.347C128.907 124.387 128.835 124.413 128.759 124.424C128.683 124.434 128.606 124.429 128.532 124.408C128.459 124.387 128.39 124.352 128.331 124.303L130.261 121.463Z" fill="#8393DE"/>
<path fill-rule="evenodd" clip-rule="evenodd" d="M114.319 114.046L115.904 111.708C115.971 111.61 116.057 111.527 116.156 111.462C116.255 111.397 116.366 111.352 116.482 111.33C116.599 111.308 116.718 111.309 116.834 111.334C116.95 111.358 117.06 111.405 117.158 111.472C117.256 111.538 117.34 111.624 117.405 111.723C117.47 111.822 117.514 111.933 117.536 112.05C117.558 112.166 117.557 112.285 117.533 112.401C117.509 112.517 117.462 112.628 117.395 112.725L115.81 115.057C115.743 115.155 115.659 115.238 115.56 115.303C115.461 115.368 115.35 115.414 115.234 115.436C115.118 115.458 114.999 115.457 114.883 115.433C114.767 115.41 114.657 115.363 114.559 115.297C114.461 115.231 114.378 115.146 114.313 115.047C114.247 114.948 114.203 114.837 114.18 114.721C114.158 114.605 114.159 114.486 114.183 114.37C114.206 114.254 114.253 114.144 114.319 114.046Z" fill="#8997E1"/>
<path fill-rule="evenodd" clip-rule="evenodd" d="M93.2442 98.9284C93.2442 98.9284 98.3555 87.628 110.416 97.6075L93.2442 98.9284Z" fill="url(#paint15_linear_1_36403)"/>
<path opacity="0.5" fill-rule="evenodd" clip-rule="evenodd" d="M95.886 108.175C95.886 108.175 103.401 117.586 111.737 113.458L95.886 108.175Z" fill="url(#paint16_linear_1_36403)"/>
<path d="M123.626 107.514C124.355 107.514 124.947 107.071 124.947 106.523C124.947 105.976 124.355 105.533 123.626 105.533C122.896 105.533 122.305 105.976 122.305 106.523C122.305 107.071 122.896 107.514 123.626 107.514Z" fill="#E6EBFE"/>
<path d="M98.5279 83.7377C99.2574 83.7377 99.8488 83.2942 99.8488 82.747C99.8488 82.1999 99.2574 81.7563 98.5279 81.7563C97.7984 81.7563 97.207 82.1999 97.207 82.747C97.207 83.2942 97.7984 83.7377 98.5279 83.7377Z" fill="#E6EBFE"/>
<path d="M94.2349 89.6818C94.782 89.6818 95.2256 89.3861 95.2256 89.0213C95.2256 88.6565 94.782 88.3608 94.2349 88.3608C93.6877 88.3608 93.2442 88.6565 93.2442 89.0213C93.2442 89.3861 93.6877 89.6818 94.2349 89.6818Z" fill="#E6EBFE"/>
<path d="M130.23 114.119C130.959 114.119 131.551 113.823 131.551 113.458C131.551 113.094 130.959 112.798 130.23 112.798C129.5 112.798 128.909 113.094 128.909 113.458C128.909 113.823 129.5 114.119 130.23 114.119Z" fill="#E6EBFE"/>
<path d="M130.56 105.533C131.107 105.533 131.551 105.237 131.551 104.872C131.551 104.508 131.107 104.212 130.56 104.212C130.013 104.212 129.569 104.508 129.569 104.872C129.569 105.237 130.013 105.533 130.56 105.533Z" fill="#E6EBFE"/>
<path d="M125.937 100.249C126.484 100.249 126.928 99.9534 126.928 99.5887C126.928 99.2239 126.484 98.9282 125.937 98.9282C125.39 98.9282 124.946 99.2239 124.946 99.5887C124.946 99.9534 125.39 100.249 125.937 100.249Z" fill="#E6EBFE"/>
<path d="M134.523 92.3237C135.435 92.3237 136.174 91.7323 136.174 91.0028C136.174 90.2733 135.435 89.6819 134.523 89.6819C133.611 89.6819 132.872 90.2733 132.872 91.0028C132.872 91.7323 133.611 92.3237 134.523 92.3237Z" fill="#E6EBFE"/>
<path d="M92.5838 124.026H88.621V124.686H92.5838V124.026Z" fill="#BBBBBB"/>
<path d="M93.2442 120.063L90.6024 124.026" stroke="#BBBBBB" stroke-width="0.66046"/>
<path d="M92.584 118.742C93.0504 119.572 93.7358 120.257 94.5654 120.723" stroke="#BBBBBB" stroke-width="0.66046"/>
<path d="M141.458 124.026H137.495V124.686H141.458V124.026Z" fill="#BBBBBB"/>
<path d="M136.835 120.063L139.476 124.026" stroke="#BBBBBB" stroke-width="0.66046"/>
<path d="M137.495 118.742C137.029 119.572 136.343 120.257 135.514 120.723" stroke="#BBBBBB" stroke-width="0.66046"/>
</g>
<defs>
<linearGradient id="paint0_linear_1_36403" x1="35.2757" y1="13.729" x2="35.2757" y2="0.500011" gradientUnits="userSpaceOnUse">
<stop stop-color="white" stop-opacity="0"/>
<stop offset="0.06" stop-color="#FCFCFC" stop-opacity="0.1"/>
<stop offset="0.19" stop-color="#F5F5F5" stop-opacity="0.34"/>
<stop offset="0.33" stop-color="#F0F0F0" stop-opacity="0.54"/>
<stop offset="0.47" stop-color="#EBEBEB" stop-opacity="0.71"/>
<stop offset="0.6" stop-color="#E8E8E8" stop-opacity="0.84"/>
<stop offset="0.74" stop-color="#E5E5E5" stop-opacity="0.93"/>
<stop offset="0.87" stop-color="#E4E4E4" stop-opacity="0.98"/>
<stop offset="1" stop-color="#E3E3E3"/>
</linearGradient>
<linearGradient id="paint1_linear_1_36403" x1="115" y1="125.036" x2="115" y2="53.1453" gradientUnits="userSpaceOnUse">
<stop stop-color="white" stop-opacity="0"/>
<stop offset="0.09" stop-color="#FEFEFE" stop-opacity="0.04"/>
<stop offset="0.24" stop-color="#FBFBFB" stop-opacity="0.15"/>
<stop offset="0.43" stop-color="#F6F6F6" stop-opacity="0.32"/>
<stop offset="0.66" stop-color="#EFEFEF" stop-opacity="0.57"/>
<stop offset="0.9" stop-color="#E7E7E7" stop-opacity="0.87"/>
<stop offset="1" stop-color="#E3E3E3"/>
</linearGradient>
<linearGradient id="paint2_linear_1_36403" x1="192.657" y1="72.5561" x2="192.657" y2="69.2009" gradientUnits="userSpaceOnUse">
<stop stop-color="white" stop-opacity="0"/>
<stop offset="1" stop-color="#D6D6D6"/>
</linearGradient>
<linearGradient id="paint3_linear_1_36403" x1="91.9233" y1="124.686" x2="91.9233" y2="132.797" gradientUnits="userSpaceOnUse">
<stop stop-color="#F0F1F2"/>
<stop offset="1" stop-color="#D8DDE1"/>
</linearGradient>
<linearGradient id="paint4_linear_1_36403" x1="57.8067" y1="110.156" x2="57.8067" y2="124.686" gradientUnits="userSpaceOnUse">
<stop stop-color="#DBDFE3"/>
<stop offset="1" stop-color="#F0F1F2"/>
</linearGradient>
<linearGradient id="paint5_linear_1_36403" x1="64.8448" y1="104.872" x2="70.1284" y2="104.872" gradientUnits="userSpaceOnUse">
<stop stop-color="#F0F1F2"/>
<stop offset="1" stop-color="#DBDFE3"/>
</linearGradient>
<linearGradient id="paint6_linear_1_36403" x1="66.9908" y1="95.3156" x2="77.8679" y2="95.3156" gradientUnits="userSpaceOnUse">
<stop stop-color="#DBDFE3"/>
<stop offset="1" stop-color="#F0F1F2"/>
</linearGradient>
<radialGradient id="paint7_radial_1_36403" cx="0" cy="0" r="1" gradientUnits="userSpaceOnUse" gradientTransform="translate(115.039 89.3514) scale(35.3346 35.3346)">
<stop stop-color="#F5F6FF"/>
<stop offset="0.664" stop-color="#F5F6FF"/>
<stop offset="1" stop-color="#EAECFF"/>
</radialGradient>
<linearGradient id="paint8_linear_1_36403" x1="101.83" y1="45.0809" x2="128.249" y2="45.0809" gradientUnits="userSpaceOnUse">
<stop stop-color="#CDD5FC"/>
<stop offset="0.479" stop-color="#A8B6F5"/>
<stop offset="1" stop-color="#CDD5FC"/>
</linearGradient>
<linearGradient id="paint9_linear_1_36403" x1="115.039" y1="124.686" x2="115.039" y2="71.189" gradientUnits="userSpaceOnUse">
<stop stop-color="#B7C3FF"/>
<stop offset="1" stop-color="#D6DCF6"/>
</linearGradient>
<linearGradient id="paint10_linear_1_36403" x1="112.766" y1="82.747" x2="117.313" y2="65.7797" gradientUnits="userSpaceOnUse">
<stop stop-color="#B3BEF4"/>
<stop offset="0.459" stop-color="#CDD4F5"/>
<stop offset="0.849" stop-color="#D3DAFB"/>
<stop offset="1" stop-color="#D3DAFB"/>
</linearGradient>
<linearGradient id="paint11_linear_1_36403" x1="115.039" y1="57.9798" x2="115.039" y2="48.7334" gradientUnits="userSpaceOnUse">
<stop stop-color="#EAECFF"/>
<stop offset="1" stop-color="#C9CEFC"/>
</linearGradient>
<linearGradient id="paint12_linear_1_36403" x1="103.812" y1="116.761" x2="103.812" y2="91.6631" gradientUnits="userSpaceOnUse">
<stop stop-color="#99A6E7"/>
<stop offset="1" stop-color="#BAC4F3"/>
</linearGradient>
<linearGradient id="paint13_linear_1_36403" x1="104.358" y1="114.099" x2="104.358" y2="92.9644" gradientUnits="userSpaceOnUse">
<stop stop-color="#D7DCFA"/>
<stop offset="1" stop-color="#E7EBFD"/>
</linearGradient>
<linearGradient id="paint14_linear_1_36403" x1="119.834" y1="124.25" x2="126.385" y2="112.904" gradientUnits="userSpaceOnUse">
<stop stop-color="#AEBBFF"/>
<stop offset="0.777" stop-color="#ECEFFF"/>
<stop offset="1" stop-color="#ECEFFF"/>
</linearGradient>
<linearGradient id="paint15_linear_1_36403" x1="101.83" y1="98.9284" x2="101.83" y2="93.4994" gradientUnits="userSpaceOnUse">
<stop stop-color="white" stop-opacity="0"/>
<stop offset="1" stop-color="white"/>
</linearGradient>
<linearGradient id="paint16_linear_1_36403" x1="102.659" y1="114.508" x2="104.964" y2="108.175" gradientUnits="userSpaceOnUse">
<stop stop-color="#99A6E7"/>
<stop offset="1" stop-color="#DADFFB" stop-opacity="0"/>
</linearGradient>
<clipPath id="clip0_1_36403">
<rect width="229.761" height="124.536" fill="white" transform="translate(0.119629 0.5)"/>
</clipPath>
<clipPath id="clip1_1_36403">
<rect width="141.999" height="105.033" fill="white" transform="translate(21.2543 39.467)"/>
</clipPath>
</defs>
</svg>
